<?xml version="1.0" encoding="utf-8"?>
<!-- Uploaded to: SVG Repo, www.svgrepo.com, Generator: SVG Repo Mixer Tools -->
<svg fill="#fff" width="" height="" viewBox="0 0 30 30" version="1.1" xmlns="http://www.w3.org/2000/svg">
<title>arrow-down-a-z</title>
<path d="M11.47 24.469l-3.72 3.721v-26.189c0-0.414-0.336-0.75-0.75-0.75s-0.75 0.336-0.75 0.75v0 26.188l-3.72-3.72c-0.136-0.134-0.322-0.218-0.528-0.218-0.415 0-0.751 0.336-0.751 0.751 0 0.207 0.083 0.394 0.218 0.529l5 5c0.026 0.026 0.065 0.017 0.093 0.038 0.052 0.040 0.088 0.098 0.15 0.124 0.085 0.035 0.184 0.056 0.287 0.057h0c0.207 0 0.394-0.084 0.53-0.219l5-5c0.135-0.136 0.218-0.323 0.218-0.529 0-0.415-0.336-0.751-0.751-0.751-0.206 0-0.393 0.083-0.528 0.218l0-0zM23.557 1.872c-0.049-0.102-0.152-0.172-0.271-0.172-0 0-0.001 0-0.001 0h-0.584c-0 0-0.001 0-0.001 0-0.119 0-0.222 0.069-0.27 0.17l-0.001 0.002-5.64 12c-0.018 0.037-0.029 0.081-0.029 0.128 0 0.166 0.134 0.3 0.3 0.3 0 0 0 0 0 0h0.531c0 0 0 0 0 0 0.119 0 0.222-0.070 0.271-0.171l0.001-0.002 1.343-2.861h7.557l1.357 2.863c0.050 0.102 0.153 0.171 0.271 0.171h0.531c0 0 0.001 0 0.002 0 0.165 0 0.299-0.134 0.299-0.299 0-0.047-0.011-0.091-0.030-0.13l0.001 0.002zM19.711 10.169l3.281-6.95 3.264 6.95zM27.584 17.704h-8.908c-0 0-0 0-0.001 0-0.166 0-0.3 0.134-0.3 0.3v0 0.496c0 0.166 0.135 0.301 0.301 0.301h7.615l-8.129 10.604c-0.039 0.050-0.062 0.113-0.063 0.182v0.41c0 0.166 0.135 0.301 0.301 0.301h9.166c0.166-0 0.301-0.135 0.301-0.301v0-0.496c-0-0.166-0.135-0.301-0.301-0.301h-7.873l8.129-10.604c0.039-0.050 0.062-0.113 0.063-0.182v-0.41c-0-0.166-0.134-0.3-0.3-0.3-0 0-0.001 0-0.001 0h0z"></path>
</svg>