<?xml version="1.0" encoding="utf-8"?>
<!-- Uploaded to: SVG Repo, www.svgrepo.com, Generator: SVG Repo Mixer Tools -->
<svg fill="#fff" width="" height="" viewBox="0 0 30 30" version="1.1" xmlns="http://www.w3.org/2000/svg">
<title>arrow-up-a-z</title>
<path d="M7.53 1.47c-0.025-0.025-0.063-0.017-0.090-0.037-0.053-0.041-0.089-0.099-0.153-0.126-0.050-0.013-0.108-0.020-0.168-0.020-0.010 0-0.021 0-0.031 0.001l0.001-0c-0.041-0.009-0.088-0.014-0.136-0.014-0.003 0-0.007 0-0.010 0h0c-0.184 0.006-0.351 0.080-0.475 0.197l0-0-5 5c-0.131 0.135-0.212 0.319-0.212 0.523 0 0.414 0.336 0.75 0.75 0.75 0.203 0 0.388-0.081 0.523-0.213l3.72-3.72v26.189c0 0.414 0.336 0.75 0.75 0.75s0.75-0.336 0.75-0.75v0-26.189l3.72 3.72c0.135 0.131 0.319 0.212 0.523 0.212 0.414 0 0.75-0.336 0.75-0.75 0-0.203-0.081-0.388-0.213-0.523l0 0zM23.557 1.872c-0.049-0.102-0.152-0.172-0.271-0.172-0 0-0.001 0-0.001 0h-0.584c-0 0-0.001 0-0.001 0-0.119 0-0.222 0.069-0.27 0.17l-0.001 0.002-5.64 12c-0.018 0.037-0.029 0.081-0.029 0.128 0 0.166 0.134 0.3 0.3 0.3 0 0 0 0 0 0h0.531c0 0 0 0 0 0 0.119 0 0.222-0.070 0.271-0.171l0.001-0.002 1.343-2.861h7.557l1.357 2.863c0.050 0.102 0.153 0.171 0.271 0.171h0.531c0 0 0.001 0 0.002 0 0.165 0 0.299-0.134 0.299-0.299 0-0.047-0.011-0.091-0.030-0.13l0.001 0.002zM19.711 10.169l3.281-6.95 3.264 6.95zM27.584 17.704h-8.908c-0 0-0 0-0.001 0-0.166 0-0.3 0.134-0.3 0.3v0 0.496c0 0.166 0.135 0.301 0.301 0.301h7.615l-8.129 10.604c-0.039 0.050-0.062 0.113-0.063 0.182v0.41c0 0.166 0.135 0.301 0.301 0.301h9.166c0.166-0 0.301-0.135 0.301-0.301v0-0.496c-0-0.166-0.135-0.301-0.301-0.301h-7.873l8.129-10.604c0.039-0.050 0.062-0.113 0.063-0.182v-0.41c-0-0.166-0.134-0.3-0.3-0.3-0 0-0.001 0-0.001 0h0z"></path>
</svg>