<?xml version="1.0" standalone="no"?>
<!DOCTYPE svg PUBLIC "-//W3C//DTD SVG 20010904//EN"
 "http://www.w3.org/TR/2001/REC-SVG-20010904/DTD/svg10.dtd">
<svg version="1.0" xmlns="http://www.w3.org/2000/svg"
 width="1280.000000pt" height="1254.000000pt" viewBox="0 0 1280.000000 1254.000000"
 preserveAspectRatio="xMidYMid meet">
<metadata>
Created by potrace 1.15, written by Peter Selinger 2001-2017
</metadata>
<g transform="translate(0.000000,1254.000000) scale(0.100000,-0.100000)"
fill="#FFA500" stroke="none">
<path d="M6435 12530 c-181 -5 -601 -16 -932 -24 -331 -9 -723 -16 -871 -16
-506 0 -689 -32 -895 -157 -134 -81 -285 -262 -356 -428 -133 -311 -177 -473
-213 -780 -22 -188 -15 -709 16 -1180 23 -365 27 -498 33 -1220 3 -445 3 -939
-2 -1097 l-7 -287 -32 -8 c-17 -4 -580 -8 -1251 -8 -1371 0 -1269 5 -1425 -76
-197 -102 -325 -265 -425 -540 -96 -264 -98 -404 -9 -661 62 -179 87 -216 295
-450 131 -147 4909 -4928 5074 -5078 322 -291 614 -458 883 -505 282 -49 544
31 847 260 220 166 401 342 824 800 199 216 855 881 2021 2050 2452 2459 2443
2450 2523 2570 115 175 192 357 239 567 32 144 32 385 0 503 -78 287 -272 468
-577 538 -86 20 -126 21 -845 24 -648 4 -780 2 -935 -12 -418 -39 -550 -14
-585 113 -8 31 -11 532 -10 1845 1 1208 -2 1843 -9 1927 -29 336 -83 564 -178
754 -61 123 -94 168 -187 262 -121 120 -248 189 -429 233 -110 27 -184 33
-767 67 -309 18 -1347 26 -1815 14z"/>
</g>
</svg>
